<svg version="1.1" id="Layer_1" xmlns="http://www.w3.org/2000/svg" xmlns:xlink="http://www.w3.org/1999/xlink" x="0px" y="0px"
	width="100%" viewBox="0 0 944 736" enable-background="new 0 0 944 736" xml:space="preserve">
	<path fill="#282828" opacity="1.000000" stroke="none" 
		d="
	M472.308899,66.613655 
		C516.284790,92.070717 559.950134,117.334320 603.594788,142.633743 
		C635.856384,161.334824 668.075256,180.109940 700.365601,198.761292 
		C703.162781,200.376999 703.938110,202.381256 704.349670,205.513870 
		C705.576477,214.852539 702.322815,220.425644 693.833008,225.418304 
		C666.904907,241.254059 640.666016,258.259583 614.077332,274.677887 
		C611.291016,276.398438 610.204834,278.361267 610.211426,281.528961 
		C610.274109,311.526794 610.221680,341.524841 610.259827,371.522766 
		C610.266968,377.140808 612.025696,378.004883 616.964111,374.932556 
		C643.375122,358.501434 669.831055,342.140839 696.107605,325.497253 
		C700.075378,322.984070 702.833252,323.512238 706.945435,325.201019 
		C716.274414,329.032196 718.623535,335.577271 717.506897,344.854034 
		C717.104065,348.200256 716.198669,350.362366 713.407593,352.089752 
		C687.681580,368.011444 661.993408,383.994415 636.292175,399.956299 
		C628.664612,404.693390 621.070618,409.486542 613.375549,414.111359 
		C611.082520,415.489532 610.215027,417.250641 610.217896,419.830994 
		C610.257812,455.495209 610.225098,491.159454 610.285645,526.823608 
		C610.294556,532.056335 611.654602,532.623047 616.327148,529.724854 
		C643.462769,512.893555 670.624939,496.104523 697.687805,479.156952 
		C700.359802,477.483643 702.530273,477.358765 705.038940,478.907990 
		C705.180359,478.995331 705.333069,479.064301 705.480164,479.142639 
		C718.031860,485.830353 718.609314,487.063202 717.396423,501.291199 
		C717.167786,503.974030 715.559509,504.995239 713.726562,506.138794 
		C694.116577,518.373413 674.510315,530.614075 654.892395,542.836182 
		C623.283325,562.528809 591.667297,582.210327 560.052246,601.893433 
		C523.776306,624.478394 487.485504,647.039490 451.244507,669.680237 
		C448.245667,671.553711 445.946960,671.703125 442.664764,669.786621 
		C401.827087,645.940552 360.862976,622.311035 319.948547,598.596252 
		C285.804718,578.805786 251.684753,558.973999 217.551743,539.164856 
		C201.996597,530.137390 186.489075,521.025391 170.831055,512.179871 
		C167.752701,510.440826 166.750122,508.412079 166.752319,505.042480 
		C166.817795,404.549164 166.825180,304.055817 166.744736,203.562500 
		C166.741852,199.947174 167.967880,197.835861 171.029190,195.943237 
		C200.458206,177.748932 229.799515,159.412781 259.163177,141.112823 
		C276.661133,130.207764 294.199860,119.366951 311.610901,108.324783 
		C315.108978,106.106270 317.899231,105.968529 321.540466,108.118027 
		C342.185394,120.305168 362.956329,132.279175 383.702087,144.295151 
		C431.817657,172.163742 479.951080,200.001541 528.060425,227.880798 
		C543.184448,236.645157 558.282837,245.454819 573.333191,254.344910 
		C577.858459,257.017944 581.643616,258.255920 586.921875,254.839005 
		C608.142334,241.101852 629.750427,227.963959 651.185425,214.556839 
		C652.954590,213.450256 655.054260,212.569855 656.028320,209.681259 
		C648.530090,205.270172 640.995178,200.787506 633.413147,196.386032 
		C605.044983,179.917999 576.666199,163.468185 548.282227,147.027374 
		C517.590881,129.250061 486.886200,111.495804 456.193481,93.720909 
		C441.353668,85.126816 426.542023,76.483887 411.680756,67.927086 
		C409.399323,66.613472 408.190033,64.964622 408.660889,62.285595 
		C408.717712,61.962162 408.670807,61.620312 408.670258,61.287003 
		C408.645630,46.771255 408.686676,46.847622 421.457764,39.980217 
		C424.553772,38.315399 426.553436,40.164886 428.757751,41.431332 
		C443.192291,49.724358 457.583862,58.092178 472.308899,66.613655 
	M318.575897,267.849609 
		C324.777191,271.423340 330.987152,274.982117 337.178375,278.573242 
		C371.723572,298.610748 406.335968,318.534485 440.723999,338.838226 
		C445.526215,341.673615 448.790497,340.713623 452.866821,338.161987 
		C479.924164,321.224792 507.089661,304.460358 534.139465,287.511200 
		C538.973633,284.482147 544.302063,282.039124 548.125183,277.909088 
		C547.590332,275.538696 545.976074,274.829376 544.573242,274.007111 
		C536.101746,269.041656 527.600342,264.127014 519.105591,259.201263 
		C484.260254,238.995911 449.411682,218.795990 414.567993,198.587692 
		C383.467041,180.550018 352.363861,162.516159 321.285675,144.439316 
		C318.676666,142.921768 316.526184,142.294449 313.548431,144.157837 
		C282.129242,163.818954 250.593567,183.293961 219.154633,202.923767 
		C217.513367,203.948547 214.965698,204.509598 214.868088,207.794907 
		C249.129654,227.625305 283.542419,247.543228 318.575897,267.849609 
	M302.728363,428.405243 
		C307.036591,430.051453 305.644836,426.444000 305.648438,424.891144 
		C305.744904,383.560303 305.705811,342.229156 305.805908,300.898346 
		C305.813416,297.793243 304.647064,296.078339 302.052460,294.582977 
		C269.448334,275.791901 236.894257,256.913910 204.324097,238.063797 
		C199.483307,235.262177 198.304398,235.915390 198.302979,241.660126 
		C198.282761,323.489166 198.306702,405.318207 198.234131,487.147186 
		C198.231277,490.366577 199.228149,492.292389 202.065506,493.924957 
		C227.031265,508.289734 251.868546,522.878296 276.872772,537.175171 
		C281.367401,539.745056 285.477173,543.353455 290.655945,544.208862 
		C291.820587,543.151306 291.727295,542.106689 291.727814,541.131042 
		C291.741852,514.799194 291.708008,488.467224 291.787262,462.135620 
		C291.795593,459.366058 290.507721,457.971771 288.299622,456.696716 
		C272.727295,447.704865 257.272644,438.506897 241.621231,429.656219 
		C237.949860,427.580078 237.004257,425.085846 236.471436,421.028320 
		C235.235825,411.618622 238.628952,405.805084 247.154160,401.835632 
		C250.787186,400.144073 253.261887,399.823914 256.714935,401.861084 
		C271.766418,410.740601 286.971436,419.359985 302.728363,428.405243 
	M419.048492,362.537842 
		C394.425354,348.242615 369.808990,333.935699 345.174347,319.660370 
		C339.070740,316.123444 337.316345,317.189423 337.315247,324.458923 
		C337.303131,405.446625 337.329254,486.434387 337.246460,567.421997 
		C337.242981,570.830322 338.263672,572.874817 341.264893,574.600647 
		C365.654358,588.625366 389.906799,602.888916 414.330750,616.852783 
		C419.414368,619.759155 424.132507,623.546631 429.957764,625.168823 
		C431.194458,622.745789 430.743652,620.547180 430.744476,618.430054 
		C430.774963,539.608704 430.837585,460.787262 430.729462,381.966064 
		C430.708038,366.358612 433.204956,371.023041 419.048492,362.537842 
	M496.188782,604.615723 
		C517.773804,591.162964 539.341309,577.681885 560.968018,564.296448 
		C563.425354,562.775574 565.041626,561.158020 565.036987,558.044861 
		C564.983887,522.403992 565.031372,486.763031 564.954895,451.122253 
		C564.944153,446.116974 563.140503,445.382599 558.694946,448.175171 
		C554.054199,451.090363 549.432861,454.036774 544.780884,456.934052 
		C518.971313,473.008392 493.179901,489.112183 467.312683,505.093353 
		C463.658356,507.351105 462.231323,510.096100 462.250946,514.451538 
		C462.406830,549.092651 462.324646,583.734741 462.372131,618.376465 
		C462.374695,620.258301 461.626160,622.405823 464.069855,624.491882 
		C474.451996,618.042358 484.996246,611.492188 496.188782,604.615723 
	M536.492249,323.090607 
		C529.716797,327.290649 522.934204,331.479218 516.167358,335.693085 
		C499.803436,345.883148 483.462463,356.110199 467.074036,366.260681 
		C463.836731,368.265747 462.234924,370.721100 462.255371,374.779846 
		C462.404053,404.265808 462.326721,433.752838 462.350250,463.239532 
		C462.351685,465.013428 461.821533,467.113495 463.717590,468.268066 
		C465.888275,469.589844 467.487213,467.813446 469.119385,466.801239 
		C499.924652,447.696960 530.691956,428.531036 561.549194,409.511230 
		C564.266113,407.836609 564.987244,405.785980 564.972778,402.932709 
		C564.927063,393.937164 564.966003,384.941193 564.977295,375.945374 
		C565.003052,355.454681 565.046204,334.963989 565.039673,314.473297 
		C565.039001,312.195831 565.638550,309.381958 563.252136,308.097900 
		C561.079468,306.928864 559.262573,308.924713 557.452637,310.057983 
		C550.685608,314.295349 543.894897,318.494934 536.492249,323.090607 
	z"/>
</svg>